<svg width="9" height="9" viewBox="0 0 9 9" fill="none" xmlns="http://www.w3.org/2000/svg">
<g clip-path="url(#clip0_365_347)">
<path d="M8.625 4.5L7.71 3.45375L7.8375 2.07L6.48375 1.7625L5.775 0.5625L4.5 1.11L3.225 0.5625L2.51625 1.75875L1.1625 2.0625L1.29 3.45L0.375 4.5L1.29 5.54625L1.1625 6.93375L2.51625 7.24125L3.225 8.4375L4.5 7.88625L5.775 8.43375L6.48375 7.2375L7.8375 6.93L7.71 5.54625L8.625 4.5ZM3.5175 6.00375L2.625 5.10375C2.59024 5.06906 2.56266 5.02785 2.54384 4.98248C2.52502 4.93712 2.51533 4.88849 2.51533 4.83938C2.51533 4.79026 2.52502 4.74163 2.54384 4.69627C2.56266 4.6509 2.59024 4.60969 2.625 4.575L2.65125 4.54875C2.7975 4.4025 3.0375 4.4025 3.18375 4.54875L3.7875 5.15625L5.71875 3.22125C5.865 3.075 6.105 3.075 6.25125 3.22125L6.2775 3.2475C6.42375 3.39375 6.42375 3.63 6.2775 3.77625L4.0575 6.00375C3.90375 6.15 3.6675 6.15 3.5175 6.00375Z" fill="black"/>
</g>
<defs>
<clipPath id="clip0_365_347">
<rect width="9" height="9" fill="white"/>
</clipPath>
</defs>
</svg>
